<?xml version="1.0" standalone="no"?>
<!DOCTYPE svg PUBLIC "-//W3C//DTD SVG 20010904//EN"
 "http://www.w3.org/TR/2001/REC-SVG-20010904/DTD/svg10.dtd">
<svg version="1.0" xmlns="http://www.w3.org/2000/svg"
 width="512.000000pt" height="512.000000pt" viewBox="0 0 512.000000 512.000000"
 preserveAspectRatio="xMidYMid meet">
<metadata>
Created by potrace 1.14, written by Peter Selinger 2001-2017
</metadata>
<g transform="translate(0.000000,512.000000) scale(0.100000,-0.100000)"
fill="#000000" stroke="none">
<path d="M1440 5109 c-101 -11 -247 -45 -350 -81 -118 -41 -302 -137 -407
-211 -110 -78 -282 -246 -361 -355 -171 -232 -281 -513 -311 -790 -15 -138
-15 -2084 0 -2220 29 -268 134 -545 292 -769 78 -110 246 -282 355 -361 232
-171 513 -281 790 -311 138 -15 2084 -15 2220 0 268 29 545 134 769 292 110
78 282 246 361 355 171 232 281 513 311 790 15 138 15 2084 0 2220 -29 268
-134 545 -292 769 -78 110 -246 282 -355 361 -232 171 -513 281 -790 311 -122
13 -2114 13 -2232 0z m210 -1785 l0 -396 69 65 c125 118 284 177 475 177 338
0 581 -210 641 -555 12 -72 15 -191 15 -646 l0 -559 -265 0 -264 0 -3 533 c-4
606 -1 585 -89 681 -66 72 -128 99 -234 100 -189 1 -308 -101 -335 -289 -5
-39 -10 -284 -10 -547 l0 -478 -265 0 -265 0 0 1155 0 1155 265 0 265 0 0
-396z m2340 370 c0 -14 -27 -295 -60 -624 -33 -329 -60 -603 -60 -609 0 -8
-90 -11 -300 -11 l-300 0 0 48 c0 26 -11 306 -25 622 -14 316 -25 581 -25 588
0 9 84 12 385 12 l385 0 0 -26z m-218 -1581 c160 -75 241 -231 216 -414 -10
-75 -28 -109 -92 -177 -164 -174 -459 -177 -630 -6 -81 82 -100 128 -100 244
0 148 48 244 161 322 77 52 142 68 268 65 100 -2 116 -5 177 -34z"/>
</g>
</svg>
